<svg width="83" height="27" viewBox="0 0 83 27" fill="none" xmlns="http://www.w3.org/2000/svg">
<path d="M31.916 12.072C31.396 12.072 30.896 12.004 30.416 11.868C29.936 11.724 29.56 11.544 29.288 11.328L29.768 10.416C30.048 10.616 30.388 10.776 30.788 10.896C31.188 11.016 31.592 11.076 32 11.076C33.008 11.076 33.512 10.788 33.512 10.212C33.512 10.02 33.444 9.868 33.308 9.756C33.172 9.644 33 9.564 32.792 9.516C32.592 9.46 32.304 9.4 31.928 9.336C31.416 9.256 30.996 9.164 30.668 9.06C30.348 8.956 30.072 8.78 29.84 8.532C29.608 8.284 29.492 7.936 29.492 7.488C29.492 6.912 29.732 6.452 30.212 6.108C30.692 5.756 31.336 5.58 32.144 5.58C32.568 5.58 32.992 5.632 33.416 5.736C33.84 5.84 34.188 5.98 34.46 6.156L33.968 7.068C33.448 6.732 32.836 6.564 32.132 6.564C31.644 6.564 31.272 6.644 31.016 6.804C30.76 6.964 30.632 7.176 30.632 7.44C30.632 7.648 30.704 7.812 30.848 7.932C30.992 8.052 31.168 8.14 31.376 8.196C31.592 8.252 31.892 8.316 32.276 8.388C32.788 8.476 33.2 8.572 33.512 8.676C33.832 8.772 34.104 8.94 34.328 9.18C34.552 9.42 34.664 9.756 34.664 10.188C34.664 10.764 34.416 11.224 33.92 11.568C33.432 11.904 32.764 12.072 31.916 12.072ZM39.4997 5.58C40.3077 5.58 40.9477 5.816 41.4197 6.288C41.8997 6.752 42.1397 7.436 42.1397 8.34V12H40.9877V8.472C40.9877 7.856 40.8397 7.392 40.5437 7.08C40.2477 6.768 39.8237 6.612 39.2717 6.612C38.6477 6.612 38.1557 6.796 37.7957 7.164C37.4357 7.524 37.2557 8.044 37.2557 8.724V12H36.1037V5.64H37.2077V6.6C37.4397 6.272 37.7517 6.02 38.1437 5.844C38.5437 5.668 38.9957 5.58 39.4997 5.58ZM50.0548 8.856C50.0548 8.944 50.0468 9.06 50.0308 9.204H44.8708C44.9428 9.764 45.1868 10.216 45.6028 10.56C46.0268 10.896 46.5508 11.064 47.1748 11.064C47.9348 11.064 48.5468 10.808 49.0108 10.296L49.6468 11.04C49.3588 11.376 48.9988 11.632 48.5668 11.808C48.1428 11.984 47.6668 12.072 47.1388 12.072C46.4668 12.072 45.8708 11.936 45.3508 11.664C44.8308 11.384 44.4268 10.996 44.1388 10.5C43.8588 10.004 43.7188 9.444 43.7188 8.82C43.7188 8.204 43.8548 7.648 44.1268 7.152C44.4068 6.656 44.7868 6.272 45.2668 6C45.7548 5.72 46.3028 5.58 46.9108 5.58C47.5188 5.58 48.0588 5.72 48.5308 6C49.0108 6.272 49.3828 6.656 49.6468 7.152C49.9188 7.648 50.0548 8.216 50.0548 8.856ZM46.9108 6.552C46.3588 6.552 45.8948 6.72 45.5188 7.056C45.1508 7.392 44.9348 7.832 44.8708 8.376H48.9508C48.8868 7.84 48.6668 7.404 48.2908 7.068C47.9228 6.724 47.4628 6.552 46.9108 6.552ZM53.7947 5.58C54.6747 5.58 55.3467 5.796 55.8107 6.228C56.2827 6.66 56.5187 7.304 56.5187 8.16V12H55.4267V11.16C55.2347 11.456 54.9587 11.684 54.5987 11.844C54.2467 11.996 53.8267 12.072 53.3387 12.072C52.6267 12.072 52.0547 11.9 51.6227 11.556C51.1987 11.212 50.9867 10.76 50.9867 10.2C50.9867 9.64 51.1907 9.192 51.5987 8.856C52.0067 8.512 52.6547 8.34 53.5427 8.34H55.3667V8.112C55.3667 7.616 55.2227 7.236 54.9347 6.972C54.6467 6.708 54.2227 6.576 53.6627 6.576C53.2867 6.576 52.9187 6.64 52.5587 6.768C52.1987 6.888 51.8947 7.052 51.6467 7.26L51.1667 6.396C51.4947 6.132 51.8867 5.932 52.3427 5.796C52.7987 5.652 53.2827 5.58 53.7947 5.58ZM53.5307 11.184C53.9707 11.184 54.3507 11.088 54.6707 10.896C54.9907 10.696 55.2227 10.416 55.3667 10.056V9.168H53.5907C52.6147 9.168 52.1267 9.496 52.1267 10.152C52.1267 10.472 52.2507 10.724 52.4987 10.908C52.7467 11.092 53.0907 11.184 53.5307 11.184ZM61.1226 9.036L59.8026 10.26V12H58.6506V3.096H59.8026V8.808L63.2706 5.64H64.6626L61.9866 8.268L64.9266 12H63.5106L61.1226 9.036ZM71.5236 8.856C71.5236 8.944 71.5156 9.06 71.4996 9.204H66.3396C66.4116 9.764 66.6556 10.216 67.0716 10.56C67.4956 10.896 68.0196 11.064 68.6436 11.064C69.4036 11.064 70.0156 10.808 70.4796 10.296L71.1156 11.04C70.8276 11.376 70.4676 11.632 70.0356 11.808C69.6116 11.984 69.1356 12.072 68.6076 12.072C67.9356 12.072 67.3396 11.936 66.8196 11.664C66.2996 11.384 65.8956 10.996 65.6076 10.5C65.3276 10.004 65.1876 9.444 65.1876 8.82C65.1876 8.204 65.3236 7.648 65.5956 7.152C65.8756 6.656 66.2556 6.272 66.7356 6C67.2236 5.72 67.7716 5.58 68.3796 5.58C68.9876 5.58 69.5276 5.72 69.9996 6C70.4796 6.272 70.8516 6.656 71.1156 7.152C71.3876 7.648 71.5236 8.216 71.5236 8.856ZM68.3796 6.552C67.8276 6.552 67.3636 6.72 66.9876 7.056C66.6196 7.392 66.4036 7.832 66.3396 8.376H70.4196C70.3556 7.84 70.1356 7.404 69.7596 7.068C69.3916 6.724 68.9316 6.552 68.3796 6.552ZM74.2273 6.708C74.4273 6.34 74.7233 6.06 75.1152 5.868C75.5073 5.676 75.9833 5.58 76.5433 5.58V6.696C76.4793 6.688 76.3913 6.684 76.2793 6.684C75.6553 6.684 75.1633 6.872 74.8033 7.248C74.4513 7.616 74.2753 8.144 74.2753 8.832V12H73.1233V5.64H74.2273V6.708ZM79.834 12.072C79.314 12.072 78.814 12.004 78.334 11.868C77.854 11.724 77.478 11.544 77.206 11.328L77.686 10.416C77.966 10.616 78.306 10.776 78.706 10.896C79.106 11.016 79.51 11.076 79.918 11.076C80.926 11.076 81.43 10.788 81.43 10.212C81.43 10.02 81.362 9.868 81.226 9.756C81.09 9.644 80.918 9.564 80.71 9.516C80.51 9.46 80.222 9.4 79.846 9.336C79.334 9.256 78.914 9.164 78.586 9.06C78.266 8.956 77.99 8.78 77.758 8.532C77.526 8.284 77.41 7.936 77.41 7.488C77.41 6.912 77.65 6.452 78.13 6.108C78.61 5.756 79.254 5.58 80.062 5.58C80.486 5.58 80.91 5.632 81.334 5.736C81.758 5.84 82.106 5.98 82.378 6.156L81.886 7.068C81.366 6.732 80.754 6.564 80.05 6.564C79.562 6.564 79.19 6.644 78.934 6.804C78.678 6.964 78.55 7.176 78.55 7.44C78.55 7.648 78.622 7.812 78.766 7.932C78.91 8.052 79.086 8.14 79.294 8.196C79.51 8.252 79.81 8.316 80.194 8.388C80.706 8.476 81.118 8.572 81.43 8.676C81.75 8.772 82.022 8.94 82.246 9.18C82.47 9.42 82.582 9.756 82.582 10.188C82.582 10.764 82.334 11.224 81.838 11.568C81.35 11.904 80.682 12.072 79.834 12.072ZM31.916 21.072C31.396 21.072 30.896 21.004 30.416 20.868C29.936 20.724 29.56 20.544 29.288 20.328L29.768 19.416C30.048 19.616 30.388 19.776 30.788 19.896C31.188 20.016 31.592 20.076 32 20.076C33.008 20.076 33.512 19.788 33.512 19.212C33.512 19.02 33.444 18.868 33.308 18.756C33.172 18.644 33 18.564 32.792 18.516C32.592 18.46 32.304 18.4 31.928 18.336C31.416 18.256 30.996 18.164 30.668 18.06C30.348 17.956 30.072 17.78 29.84 17.532C29.608 17.284 29.492 16.936 29.492 16.488C29.492 15.912 29.732 15.452 30.212 15.108C30.692 14.756 31.336 14.58 32.144 14.58C32.568 14.58 32.992 14.632 33.416 14.736C33.84 14.84 34.188 14.98 34.46 15.156L33.968 16.068C33.448 15.732 32.836 15.564 32.132 15.564C31.644 15.564 31.272 15.644 31.016 15.804C30.76 15.964 30.632 16.176 30.632 16.44C30.632 16.648 30.704 16.812 30.848 16.932C30.992 17.052 31.168 17.14 31.376 17.196C31.592 17.252 31.892 17.316 32.276 17.388C32.788 17.476 33.2 17.572 33.512 17.676C33.832 17.772 34.104 17.94 34.328 18.18C34.552 18.42 34.664 18.756 34.664 19.188C34.664 19.764 34.416 20.224 33.92 20.568C33.432 20.904 32.764 21.072 31.916 21.072ZM39.6797 20.628C39.5117 20.772 39.3037 20.884 39.0557 20.964C38.8077 21.036 38.5517 21.072 38.2877 21.072C37.6477 21.072 37.1517 20.9 36.7997 20.556C36.4477 20.212 36.2717 19.72 36.2717 19.08V15.588H35.1917V14.64H36.2717V13.248H37.4237V14.64H39.2477V15.588H37.4237V19.032C37.4237 19.376 37.5077 19.64 37.6757 19.824C37.8517 20.008 38.0997 20.1 38.4197 20.1C38.7717 20.1 39.0717 20 39.3197 19.8L39.6797 20.628ZM43.5855 21.072C42.9535 21.072 42.3855 20.932 41.8815 20.652C41.3775 20.372 40.9815 19.988 40.6935 19.5C40.4135 19.004 40.2735 18.444 40.2735 17.82C40.2735 17.196 40.4135 16.64 40.6935 16.152C40.9815 15.656 41.3775 15.272 41.8815 15C42.3855 14.72 42.9535 14.58 43.5855 14.58C44.2175 14.58 44.7815 14.72 45.2775 15C45.7815 15.272 46.1735 15.656 46.4535 16.152C46.7415 16.64 46.8855 17.196 46.8855 17.82C46.8855 18.444 46.7415 19.004 46.4535 19.5C46.1735 19.988 45.7815 20.372 45.2775 20.652C44.7815 20.932 44.2175 21.072 43.5855 21.072ZM43.5855 20.064C43.9935 20.064 44.3575 19.972 44.6775 19.788C45.0055 19.596 45.2615 19.332 45.4455 18.996C45.6295 18.652 45.7215 18.26 45.7215 17.82C45.7215 17.38 45.6295 16.992 45.4455 16.656C45.2615 16.312 45.0055 16.048 44.6775 15.864C44.3575 15.68 43.9935 15.588 43.5855 15.588C43.1775 15.588 42.8095 15.68 42.4815 15.864C42.1615 16.048 41.9055 16.312 41.7135 16.656C41.5295 16.992 41.4375 17.38 41.4375 17.82C41.4375 18.26 41.5295 18.652 41.7135 18.996C41.9055 19.332 42.1615 19.596 42.4815 19.788C42.8095 19.972 43.1775 20.064 43.5855 20.064ZM49.5827 15.708C49.7827 15.34 50.0787 15.06 50.4707 14.868C50.8627 14.676 51.3387 14.58 51.8987 14.58V15.696C51.8347 15.688 51.7467 15.684 51.6347 15.684C51.0107 15.684 50.5187 15.872 50.1587 16.248C49.8067 16.616 49.6307 17.144 49.6307 17.832V21H48.4787V14.64H49.5827V15.708ZM59.008 17.856C59.008 17.944 59 18.06 58.984 18.204H53.824C53.896 18.764 54.14 19.216 54.556 19.56C54.98 19.896 55.504 20.064 56.128 20.064C56.888 20.064 57.5 19.808 57.964 19.296L58.6 20.04C58.312 20.376 57.952 20.632 57.52 20.808C57.096 20.984 56.62 21.072 56.092 21.072C55.42 21.072 54.824 20.936 54.304 20.664C53.784 20.384 53.38 19.996 53.092 19.5C52.812 19.004 52.672 18.444 52.672 17.82C52.672 17.204 52.808 16.648 53.08 16.152C53.36 15.656 53.74 15.272 54.22 15C54.708 14.72 55.256 14.58 55.864 14.58C56.472 14.58 57.012 14.72 57.484 15C57.964 15.272 58.336 15.656 58.6 16.152C58.872 16.648 59.008 17.216 59.008 17.856ZM55.864 15.552C55.312 15.552 54.848 15.72 54.472 16.056C54.104 16.392 53.888 16.832 53.824 17.376H57.904C57.84 16.84 57.62 16.404 57.244 16.068C56.876 15.724 56.416 15.552 55.864 15.552Z" fill="black"/>
<path d="M6.886 21.264C5.66867 21.264 4.488 21.1027 3.344 20.78C2.21467 20.4427 1.30533 20.01 0.616 19.482L1.826 16.798C2.486 17.282 3.27067 17.6707 4.18 17.964C5.08933 18.2573 5.99867 18.404 6.908 18.404C7.92 18.404 8.668 18.2573 9.152 17.964C9.636 17.656 9.878 17.2527 9.878 16.754C9.878 16.3873 9.73133 16.0867 9.438 15.852C9.15933 15.6027 8.79267 15.4047 8.338 15.258C7.898 15.1113 7.29667 14.95 6.534 14.774C5.36067 14.4953 4.4 14.2167 3.652 13.938C2.904 13.6593 2.25867 13.212 1.716 12.596C1.188 11.98 0.924 11.1587 0.924 10.132C0.924 9.23733 1.166 8.43067 1.65 7.712C2.134 6.97867 2.86 6.39933 3.828 5.974C4.81067 5.54867 6.006 5.336 7.414 5.336C8.39667 5.336 9.35733 5.45333 10.296 5.688C11.2347 5.92267 12.056 6.26 12.76 6.7L11.66 9.406C10.2373 8.59933 8.81467 8.196 7.392 8.196C6.39467 8.196 5.654 8.35733 5.17 8.68C4.70067 9.00267 4.466 9.428 4.466 9.956C4.466 10.484 4.73733 10.88 5.28 11.144C5.83733 11.3933 6.68067 11.6427 7.81 11.892C8.98333 12.1707 9.944 12.4493 10.692 12.728C11.44 13.0067 12.078 13.4467 12.606 14.048C13.1487 14.6493 13.42 15.4633 13.42 16.49C13.42 17.37 13.1707 18.1767 12.672 18.91C12.188 19.6287 11.4547 20.2007 10.472 20.626C9.48933 21.0513 8.294 21.264 6.886 21.264Z" fill="black"/>
<path d="M19.886 21.264C18.6687 21.264 17.488 21.1027 16.344 20.78C15.2147 20.4427 14.3053 20.01 13.616 19.482L14.826 16.798C15.486 17.282 16.2707 17.6707 17.18 17.964C18.0893 18.2573 18.9987 18.404 19.908 18.404C20.92 18.404 21.668 18.2573 22.152 17.964C22.636 17.656 22.878 17.2527 22.878 16.754C22.878 16.3873 22.7313 16.0867 22.438 15.852C22.1593 15.6027 21.7927 15.4047 21.338 15.258C20.898 15.1113 20.2967 14.95 19.534 14.774C18.3607 14.4953 17.4 14.2167 16.652 13.938C15.904 13.6593 15.2587 13.212 14.716 12.596C14.188 11.98 13.924 11.1587 13.924 10.132C13.924 9.23733 14.166 8.43067 14.65 7.712C15.134 6.97867 15.86 6.39933 16.828 5.974C17.8107 5.54867 19.006 5.336 20.414 5.336C21.3967 5.336 22.3573 5.45333 23.296 5.688C24.2347 5.92267 25.056 6.26 25.76 6.7L24.66 9.406C23.2373 8.59933 21.8147 8.196 20.392 8.196C19.3947 8.196 18.654 8.35733 18.17 8.68C17.7007 9.00267 17.466 9.428 17.466 9.956C17.466 10.484 17.7373 10.88 18.28 11.144C18.8373 11.3933 19.6807 11.6427 20.81 11.892C21.9833 12.1707 22.944 12.4493 23.692 12.728C24.44 13.0067 25.078 13.4467 25.606 14.048C26.1487 14.6493 26.42 15.4633 26.42 16.49C26.42 17.37 26.1707 18.1767 25.672 18.91C25.188 19.6287 24.4547 20.2007 23.472 20.626C22.4893 21.0513 21.294 21.264 19.886 21.264Z" fill="black"/>
</svg>
