<svg width="23" height="23" viewBox="0 0 23 23" fill="none" xmlns="http://www.w3.org/2000/svg">
<path d="M11.1102 20.8751C11.1102 22.0486 10.255 23 9.20012 23C8.1452 23 7.29004 22.0486 7.29004 20.8751C7.29004 19.7015 8.14521 18.7502 9.20013 18.7502C10.2551 18.7502 11.1102 19.7015 11.1102 20.8751ZM16.9342 18.7502C15.8793 18.7502 15.0241 19.7015 15.0241 20.8751C15.0241 22.0486 15.8793 23 16.9342 23C17.9891 23 18.8443 22.0486 18.8443 20.8751C18.8443 19.7015 17.9891 18.7502 16.9342 18.7502ZM22.8633 8.7749L20.513 16.5462C20.513 16.5462 20.3184 17.6995 19.3272 17.6995C18.3359 17.6995 8.642 17.6995 7.45903 17.6995C6.27605 17.6995 6.22634 16.254 6.22634 16.254C6.22634 16.254 4.96526 5.84584 4.90277 5.21705C4.84028 4.58826 4.11744 4.12221 4.11744 4.12221L1.00732 2.50602C-0.695431 1.51544 0.0785442 -0.369337 1.00732 0.0635486C4.95106 2.13316 6.78304 3.15218 6.90092 3.96738C7.02021 4.78417 7.22755 6.7511 7.22755 6.7511V6.76374C7.25169 6.75584 7.26873 6.7511 7.26873 6.7511C7.26873 6.7511 19.3627 6.7511 21.8053 6.7511C23.5606 6.7511 22.8633 8.77807 22.8633 8.7749ZM19.4635 13.1021L19.4393 13.1037H7.93336L8.17052 15.1955H18.904L19.4635 13.1021ZM20.584 8.88392H7.45761L7.7104 11.1194C10.2283 11.1194 17.6017 11.1194 19.9904 11.1194L20.584 8.88392Z" fill="black"/>
</svg>
